<svg xmlns="http://www.w3.org/2000/svg" width="256" height="256" viewBox="0 0 100 100"><rect width="100" height="100" rx="20" fill="#ffa500"></rect><path fill="#000000" d="M3.54 33.90L3.54 32.94Q4.54 32.98 6.18 33.03Q7.81 33.08 9.39 33.08L9.39 33.08Q11.65 33.08 13.71 33.03Q15.78 32.98 16.64 32.98L16.64 32.98Q21.68 32.98 24.22 35.10Q26.77 37.21 26.77 40.52L26.77 40.52Q26.77 42.20 26.07 43.81Q25.38 45.42 23.77 46.74Q22.16 48.06 19.47 48.87L19.47 48.87L19.47 48.97Q23.26 49.45 25.40 50.77Q27.54 52.09 28.40 53.86Q29.26 55.64 29.26 57.61L29.26 57.61Q29.26 61.69 26.22 64.30Q23.17 66.92 17.74 66.92L17.74 66.92Q16.69 66.92 14.58 66.85Q12.46 66.78 9.49 66.78L9.49 66.78Q7.81 66.78 6.18 66.80Q4.54 66.82 3.54 66.92L3.54 66.92L3.54 65.96Q5.17 65.86 6.01 65.58Q6.85 65.29 7.14 64.42Q7.42 63.56 7.42 61.83L7.42 61.83L7.42 38.02Q7.42 36.25 7.14 35.41Q6.85 34.57 6.01 34.26Q5.17 33.94 3.54 33.90L3.54 33.90ZM15.44 33.90L15.44 33.90Q13.23 33.90 12.56 34.71Q11.89 35.53 11.89 38.02L11.89 38.02L11.89 61.83Q11.89 64.33 12.58 65.07Q13.28 65.82 15.49 65.82L15.49 65.82Q20.19 65.82 22.33 63.63Q24.46 61.45 24.46 57.42L24.46 57.42Q24.46 53.72 22.47 51.70Q20.48 49.69 15.92 49.69L15.92 49.69L10.98 49.69Q10.98 49.69 10.98 49.28Q10.98 48.87 10.98 48.87L10.98 48.87L15.10 48.87Q17.94 48.87 19.47 47.79Q21.01 46.71 21.58 44.91Q22.16 43.11 22.16 41.05L22.16 41.05Q22.16 37.50 20.60 35.70Q19.04 33.90 15.44 33.90ZM70.88 32.94L70.88 32.94L70.88 33.90Q69.25 33.94 68.41 34.26Q67.57 34.57 67.28 35.41Q66.99 36.25 66.99 38.02L66.99 38.02L66.99 61.83Q66.99 63.56 67.28 64.42Q67.57 65.29 68.41 65.58Q69.25 65.86 70.88 65.96L70.88 65.96L70.88 66.92Q69.78 66.82 68.12 66.80Q66.46 66.78 64.78 66.78L64.78 66.78Q62.91 66.78 61.28 66.80Q59.65 66.82 58.64 66.92L58.64 66.92L58.64 65.96Q60.27 65.86 61.11 65.58Q61.95 65.29 62.24 64.42Q62.53 63.56 62.53 61.83L62.53 61.83L62.53 35.43L62.72 35.58L50.96 67.16L50.19 67.16L38.10 36.01L38.10 61.35Q38.10 63.08 38.41 64.06Q38.72 65.05 39.66 65.46Q40.59 65.86 42.46 65.96L42.46 65.96L42.46 66.92Q41.60 66.82 40.21 66.80Q38.82 66.78 37.57 66.78L37.57 66.78Q36.37 66.78 35.14 66.80Q33.92 66.82 33.10 66.92L33.10 66.92L33.10 65.96Q34.74 65.86 35.58 65.46Q36.42 65.05 36.70 64.06Q36.99 63.08 36.99 61.35L36.99 61.35L36.99 38.02Q36.99 36.25 36.70 35.41Q36.42 34.57 35.58 34.26Q34.74 33.94 33.10 33.90L33.10 33.90L33.10 32.94Q33.92 32.98 35.14 33.03Q36.37 33.08 37.57 33.08L37.57 33.08Q38.62 33.08 39.75 33.03Q40.88 32.98 41.65 32.94L41.65 32.94L52.54 61.64L51.73 62.02L62.53 33.08Q63.10 33.08 63.66 33.08Q64.21 33.08 64.78 33.08L64.78 33.08Q66.46 33.08 68.12 33.03Q69.78 32.98 70.88 32.94ZM85.18 32.41L85.18 32.41Q87.58 32.41 88.83 32.96Q90.08 33.51 91.04 34.18L91.04 34.18Q91.62 34.52 91.98 34.69Q92.34 34.86 92.67 34.86L92.67 34.86Q93.44 34.86 93.73 32.74L93.73 32.74L94.83 32.74Q94.78 33.56 94.71 34.69Q94.64 35.82 94.62 37.66Q94.59 39.51 94.59 42.54L94.59 42.54L93.49 42.54Q93.34 40.23 92.48 38.12Q91.62 36.01 89.96 34.66Q88.30 33.32 85.62 33.32L85.62 33.32Q83.07 33.32 81.42 34.86Q79.76 36.39 79.76 38.89L79.76 38.89Q79.76 41.05 80.86 42.51Q81.97 43.98 83.82 45.15Q85.66 46.33 87.82 47.67L87.82 47.67Q90.32 49.21 92.26 50.72Q94.21 52.23 95.34 54.06Q96.46 55.88 96.46 58.47L96.46 58.47Q96.46 61.54 95.07 63.56Q93.68 65.58 91.38 66.58Q89.07 67.59 86.29 67.59L86.29 67.59Q83.74 67.59 82.26 67.02Q80.77 66.44 79.71 65.82L79.71 65.82Q78.66 65.14 78.08 65.14L78.08 65.14Q77.31 65.14 77.02 67.26L77.02 67.26L75.92 67.26Q76.02 66.25 76.04 64.88Q76.06 63.51 76.09 61.30Q76.11 59.10 76.11 55.74L76.11 55.74L77.22 55.74Q77.41 58.62 78.30 61.11Q79.18 63.61 81.03 65.12Q82.88 66.63 85.95 66.63L85.95 66.63Q88.30 66.63 90.25 65.12Q92.19 63.61 92.19 60.25L92.19 60.25Q92.19 57.32 90.13 55.40Q88.06 53.48 84.70 51.46L84.70 51.46Q82.45 50.07 80.48 48.63Q78.51 47.19 77.34 45.30Q76.16 43.40 76.16 40.71L76.16 40.71Q76.16 37.88 77.43 36.03Q78.70 34.18 80.77 33.30Q82.83 32.41 85.18 32.41Z"></path></svg>